<?xml version="1.0" encoding="UTF-8" standalone="no"?>
<svg
   xmlns:dc="http://purl.org/dc/elements/1.1/"
   xmlns:cc="http://creativecommons.org/ns#"
   xmlns:rdf="http://www.w3.org/1999/02/22-rdf-syntax-ns#"
   xmlns:svg="http://www.w3.org/2000/svg"
   xmlns="http://www.w3.org/2000/svg"
   xmlns:sodipodi="http://sodipodi.sourceforge.net/DTD/sodipodi-0.dtd"
   xmlns:inkscape="http://www.inkscape.org/namespaces/inkscape"
   width="100%"
   height="100%"
   viewBox="0 0 243 92"
   version="1.1"
   xml:space="preserve"
   style="fill-rule:evenodd;clip-rule:evenodd;stroke-linejoin:round;stroke-miterlimit:1.41421;"
   id="svg937"
   sodipodi:docname="enviroSense_wort_und_logo.svg"
   inkscape:version="0.92.2 5c3e80d, 2017-08-06"><metadata
     id="metadata943"><rdf:RDF><cc:Work
         rdf:about=""><dc:format>image/svg+xml</dc:format><dc:type
           rdf:resource="http://purl.org/dc/dcmitype/StillImage" /><dc:title></dc:title></cc:Work></rdf:RDF></metadata><defs
     id="defs941" /><sodipodi:namedview
     pagecolor="#ffffff"
     bordercolor="#666666"
     borderopacity="1"
     objecttolerance="10"
     gridtolerance="10"
     guidetolerance="10"
     inkscape:pageopacity="0"
     inkscape:pageshadow="2"
     inkscape:window-width="1898"
     inkscape:window-height="1018"
     id="namedview939"
     showgrid="false"
     inkscape:zoom="3.0123457"
     inkscape:cx="129.18124"
     inkscape:cy="46"
     inkscape:window-x="1320"
     inkscape:window-y="7"
     inkscape:window-maximized="0"
     inkscape:current-layer="svg937"
     units="in" /><text
     xml:space="preserve"
     style="font-style:normal;font-variant:normal;font-weight:bold;font-stretch:normal;font-size:31.92842865px;line-height:1.25;font-family:'Brix Slab';-inkscape-font-specification:'Brix Slab, Bold';font-variant-ligatures:normal;font-variant-caps:normal;font-variant-numeric:normal;font-feature-settings:normal;text-align:center;letter-spacing:0px;word-spacing:0px;writing-mode:lr-tb;text-anchor:middle;fill:#ffcc13;fill-opacity:1;stroke:none;stroke-width:0.79821098"
     x="94.598923"
     y="52.657661"
     id="text854"><tspan
       sodipodi:role="line"
       id="tspan852"
       x="94.598915"
       y="52.657661"
       style="stroke-width:0.79821098">enviroSense</tspan></text>
<path
     d="m 208.15475,36.51116 c 0.0137,0.08301 0.0212,0.167623 0.0212,0.251436 0,0.841317 -0.69197,1.532565 -1.53255,1.532565 -0.84049,0 -1.53254,-0.691248 -1.53254,-1.532565 0,-0.748722 0.54917,-1.392879 1.2883,-1.512607 0.0831,-0.0135 0.16685,-0.02073 0.25066,-0.02073 0.74556,0 1.38646,0.545976 1.5054,1.281929"
     style="fill:#45beed;fill-opacity:1;fill-rule:nonzero;stroke-width:0.79821098"
     id="path915"
     inkscape:connector-curvature="0" /><path
     d="m 208.15475,42.960706 c 0.013,0.08061 0.0195,0.162034 0.0195,0.244251 0,0.840517 -0.69119,1.532564 -1.5326,1.532564 -0.84045,0 -1.53248,-0.692047 -1.53248,-1.532564 0,-0.749522 0.54995,-1.394475 1.28987,-1.513407 0.0821,-0.01353 0.16606,-0.02073 0.24986,-0.02073 0.74794,0 1.3913,0.550766 1.50621,1.289912"
     style="fill:#45beed;fill-opacity:1;fill-rule:nonzero;stroke-width:0.79821098"
     id="path917"
     inkscape:connector-curvature="0" /><path
     d="m 213.13561,48.420467 c 0.013,0.08061 0.0195,0.162034 0.0195,0.244251 0,0.840513 -0.69124,1.532561 -1.53254,1.532561 -0.8405,0 -1.53259,-0.692048 -1.53259,-1.532561 0,-0.749519 0.54997,-1.394474 1.28994,-1.51341 0.82931,-0.1333 1.62193,0.439816 1.75608,1.269159"
     style="fill:#45beed;fill-opacity:1;fill-rule:nonzero;stroke-width:0.79821098"
     id="path919"
     inkscape:connector-curvature="0" /><path
     d="m 214.66819,39.903556 c 0.013,0.08062 0.0195,0.162039 0.0195,0.244254 0,0.840516 -0.69121,1.532565 -1.53256,1.532565 -0.84046,0 -1.53254,-0.692049 -1.53254,-1.532565 0,-0.749522 0.54997,-1.394477 1.28988,-1.513405 0.82935,-0.133306 1.62197,0.439809 1.7561,1.269151"
     style="fill:#45beed;fill-opacity:1;fill-rule:nonzero;stroke-width:0.79821098"
     id="path921"
     inkscape:connector-curvature="0" /><path
     d="m 201.30613,30.740099 7.7187,-7.718702 7.79051,7.790538 c -4.61922,3.35089 -10.91791,3.325346 -15.50921,-0.06381 z"
     style="fill:#50ae48;fill-opacity:1;fill-rule:nonzero;stroke-width:0.79821098"
     id="path923"
     inkscape:connector-curvature="0" /><path
     d="m 222.95361,52.323717 -2.80175,-2.801723 2.89753,-2.897503 h -5.79502 l -2.00351,-2.003509 1.94766,-1.955618 h 5.90676 l -2.95342,-2.95338 2.80175,-2.801719 7.6708,7.670807 z"
     style="fill:#45beed;fill-opacity:1;fill-rule:nonzero;stroke-width:0.79821098"
     id="path925"
     inkscape:connector-curvature="0" /><path
     d="m 218.33194,56.913426 c -5.16442,-4.931343 -13.40192,-4.931343 -18.56638,0 l 9.2672,9.26723 z"
     style="fill:#ffcc13;fill-opacity:1;fill-rule:nonzero;stroke-width:0.79821098"
     id="path927"
     inkscape:connector-curvature="0" /><path
     d="m 189.85979,42.186441 c 1.33138,1.333809 1.33138,3.527289 0,4.861103 l 1.91574,1.915705 c 2.37942,-2.383456 2.37942,-6.301078 0,-8.684535 z"
     style="fill:#45beed;fill-opacity:1;fill-rule:nonzero;stroke-width:0.79821098"
     id="path929"
     inkscape:connector-curvature="0" /><path
     d="m 193.27612,38.802025 c 3.18804,3.19444 3.18804,8.443474 0,11.637916 l 1.91573,1.915702 c 4.23931,-4.241693 4.23931,-11.219651 0,-15.461343 z"
     style="fill:#45beed;fill-opacity:1;fill-rule:nonzero;stroke-width:0.79821098"
     id="path931"
     inkscape:connector-curvature="0" /><path
     d="m 196.63663,35.409628 c 2.44332,2.439335 3.81778,5.754301 3.81778,9.207361 0,3.453062 -1.37446,6.76803 -3.81778,9.207367 l 1.91569,1.915703 c 2.95177,-2.945396 4.61201,-6.949221 4.61201,-11.119077 0,-4.169854 -1.66024,-8.17368 -4.61201,-11.11908 z"
     style="fill:#45beed;fill-opacity:1;fill-rule:nonzero;stroke-width:0.79821098"
     id="path933"
     inkscape:connector-curvature="0" /><path
     d="m 187.42524,44.620982 1.21325,1.213281 c 0.32172,-0.315296 0.50291,-0.747125 0.50291,-1.197316 0,-0.450194 -0.18119,-0.882021 -0.50291,-1.197318 z"
     style="fill:#45beed;fill-opacity:1;fill-rule:nonzero;stroke-width:0.79821098"
     id="path935"
     inkscape:connector-curvature="0" /></svg>