<?xml version="1.0" encoding="UTF-8"?>
<svg clip-rule="evenodd" fill-rule="evenodd" stroke-linejoin="round" stroke-miterlimit="1.4142" version="1.1" viewBox="0 0 243 92" xml:space="preserve" xmlns="http://www.w3.org/2000/svg" xmlns:cc="http://creativecommons.org/ns#" xmlns:dc="http://purl.org/dc/elements/1.1/" xmlns:rdf="http://www.w3.org/1999/02/22-rdf-syntax-ns#"><metadata><rdf:RDF><cc:Work rdf:about=""><dc:format>image/svg+xml</dc:format><dc:type rdf:resource="http://purl.org/dc/dcmitype/StillImage"/><dc:title/></cc:Work></rdf:RDF></metadata><g fill="#ffcc13"><path d="m17.776 49.848c-2.235 0-3.3206-1.2452-3.3844-3.2886h8.8122c0.15964-0.60664 0.25543-1.6922 0.25543-2.4904 0-3.129-1.6922-6.2899-6.1303-6.2899-4.47 0-6.705 3.4483-6.705 7.599 0 4.4381 2.0753 7.6309 7.12 7.6309 1.9157 0 4.023-0.63857 5.5555-1.5964l-1.1494-2.8097c-1.341 0.79821-2.8416 1.2452-4.3742 1.2452zm-3.3525-5.9706c0.12771-1.7241 0.894-3.129 2.9055-3.129 1.4687 0 2.682 0.894 2.682 2.682 0 0.09578 0 0.25543-0.03193 0.447z" style="font-feature-settings:normal;font-variant-caps:normal;font-variant-ligatures:normal;font-variant-numeric:normal"/><path d="m25.687 52.658h7.4713v-3.0651h-2.0434v-7.3755c0.60664-0.47893 1.9157-1.0856 3.1609-1.0856 2.1392 0 2.7458 1.0217 2.7458 2.7778v5.6833h-2.1073v3.0651h7.5032v-3.0651h-1.8518v-6.0664c0-3.7676-1.5964-5.7471-4.917-5.7471-2.9055 0-4.1826 1.1494-4.917 2.0434v-1.7241h-4.9808v3.0971h1.8199v8.3972h-1.8838z" style="font-feature-settings:normal;font-variant-caps:normal;font-variant-ligatures:normal;font-variant-numeric:normal"/><path d="m52.361 41.195h1.9796l-2.9374 8.1417-2.8736-8.1417h2.0115v-3.0971h-7.6948v3.0971h1.8199l4.3742 11.462h4.5658l4.4381-11.462h1.8199v-3.0971h-7.5032z" style="font-feature-settings:normal;font-variant-caps:normal;font-variant-ligatures:normal;font-variant-numeric:normal"/><path d="m61.135 52.658h9.4508v-3.0651h-2.8416v-11.494h-6.6092v3.0971h3.0651v8.3972h-3.0651zm4.6935-17.465c1.1175 0 2.2031-0.57471 2.2031-2.1392 0-1.5326-1.0856-2.2031-2.2031-2.2031-1.2771 0-2.235 0.6705-2.235 2.2031 0 1.5645 0.95785 2.1392 2.235 2.1392z" style="font-feature-settings:normal;font-variant-caps:normal;font-variant-ligatures:normal;font-variant-numeric:normal"/><path d="m72.113 41.195h2.1073v8.1098l-2.1073 0.57471v2.7778h8.8761v-3.0651h-3.2248v-6.1303c0.63857-1.1175 1.8518-1.8199 3.2248-1.9157l2.5862 0.47893 0.28736-4.0868c-0.63857-0.09578-1.5645-0.15964-2.235-0.15964-1.9476 0-3.6718 2.1073-4.1188 3.4802v-3.1609h-5.3959z" style="font-feature-settings:normal;font-variant-caps:normal;font-variant-ligatures:normal;font-variant-numeric:normal"/><path d="m92.231 37.779c-5.1405 0-7.0243 3.0971-7.0243 7.6309 0 4.4381 1.9476 7.599 6.8965 7.599 5.1724 0 7.0243-3.129 7.0243-7.6628 0-4.4381-1.9157-7.567-6.8965-7.567zm-0.03193 11.941c-2.3946 0-3.2567-1.341-3.2567-4.3742 0-2.9374 0.83014-4.2784 3.1928-4.2784 2.4585 0 3.2567 1.341 3.2567 4.3423 0 2.9055-0.76628 4.3103-3.1928 4.3103z" style="font-feature-settings:normal;font-variant-caps:normal;font-variant-ligatures:normal;font-variant-numeric:normal"/><path d="m115.45 32.255c-1.5964-0.79821-4.1188-1.5326-6.5773-1.5326-5.2363 0-7.1839 3.3206-7.1839 6.1303 0 3.0971 1.2452 4.9489 4.9489 6.2899l3.3844 1.2133c1.341 0.47893 2.1073 1.5326 2.1073 2.8097 0 1.6603-1.2771 2.8416-3.3844 2.8416-1.1814 0-2.5862-0.2235-3.3206-0.57471l-0.83014-3.7356h-3.1928l0.25543 5.811c1.8838 0.92592 4.2465 1.5006 7.12 1.5006 5.2043 0 7.4074-3.2886 7.4074-6.1622 0-2.9374-1.2452-4.885-5.1724-6.2899l-3.129-1.1175c-1.6603-0.60664-2.1711-1.5645-2.1711-2.7458 0-1.5326 1.0856-2.8736 3.1609-2.8736 1.0217 0 1.9476 0.15964 2.8097 0.41507l0.57471 3.6398h3.1928z" style="font-feature-settings:normal;font-variant-caps:normal;font-variant-ligatures:normal;font-variant-numeric:normal"/><path d="m125.53 49.848c-2.235 0-3.3206-1.2452-3.3844-3.2886h8.8122c0.15964-0.60664 0.25543-1.6922 0.25543-2.4904 0-3.129-1.6922-6.2899-6.1303-6.2899-4.47 0-6.705 3.4483-6.705 7.599 0 4.4381 2.0754 7.6309 7.12 7.6309 1.9157 0 4.023-0.63857 5.5556-1.5964l-1.1494-2.8097c-1.341 0.79821-2.8416 1.2452-4.3742 1.2452zm-3.3525-5.9706c0.12772-1.7241 0.894-3.129 2.9055-3.129 1.4687 0 2.682 0.894 2.682 2.682 0 0.09578 0 0.25543-0.0319 0.447z" style="font-feature-settings:normal;font-variant-caps:normal;font-variant-ligatures:normal;font-variant-numeric:normal"/><path d="m133.45 52.658h7.4712v-3.0651h-2.0434v-7.3755c0.60664-0.47893 1.9157-1.0856 3.1609-1.0856 2.1392 0 2.7458 1.0217 2.7458 2.7778v5.6833h-2.1073v3.0651h7.5032v-3.0651h-1.8518v-6.0664c0-3.7676-1.5964-5.7471-4.917-5.7471-2.9055 0-4.1826 1.1494-4.917 2.0434v-1.7241h-4.9808v3.0971h1.8199v8.3972h-1.8838z" style="font-feature-settings:normal;font-variant-caps:normal;font-variant-ligatures:normal;font-variant-numeric:normal"/><path d="m163.05 38.705c-1.2452-0.54278-3.3525-0.92592-5.2363-0.92592-4.5019 0-5.811 2.4585-5.811 4.5019 0 2.2031 1.2771 3.576 3.7356 4.3423l2.4266 0.76628c0.95786 0.31928 1.4048 0.86207 1.4048 1.5645 0 0.98978-0.79821 1.5326-2.0434 1.5326-0.86206 0-1.6922-0.15964-2.2669-0.447l-0.63857-2.1711h-2.8097l0.25542 4.1507c1.5645 0.63857 3.2567 0.98978 5.4917 0.98978 4.5338 0 6.0345-2.2669 6.0345-4.47 0-2.2669-1.341-3.576-3.9911-4.4061l-2.2988-0.70242c-1.0536-0.35121-1.341-0.86207-1.341-1.5645 0-0.79821 0.57471-1.5326 1.8518-1.5326 0.79821 0 1.4368 0.12771 2.0115 0.35121l0.41507 1.9476h2.8097z" style="font-feature-settings:normal;font-variant-caps:normal;font-variant-ligatures:normal;font-variant-numeric:normal"/><path d="m172.87 49.848c-2.235 0-3.3206-1.2452-3.3844-3.2886h8.8122c0.15964-0.60664 0.25543-1.6922 0.25543-2.4904 0-3.129-1.6922-6.2899-6.1303-6.2899-4.47 0-6.705 3.4483-6.705 7.599 0 4.4381 2.0754 7.6309 7.12 7.6309 1.9157 0 4.023-0.63857 5.5555-1.5964l-1.1494-2.8097c-1.341 0.79821-2.8416 1.2452-4.3742 1.2452zm-3.3525-5.9706c0.12771-1.7241 0.894-3.129 2.9055-3.129 1.4687 0 2.682 0.894 2.682 2.682 0 0.09578 0 0.25543-0.0319 0.447z" style="font-feature-settings:normal;font-variant-caps:normal;font-variant-ligatures:normal;font-variant-numeric:normal"/></g><g fill="#45beed" fill-rule="nonzero" stroke-width=".79821"><path d="m208.15 36.511c0.0137 0.08301 0.0212 0.16762 0.0212 0.25144 0 0.84132-0.69197 1.5326-1.5326 1.5326-0.84049 0-1.5325-0.69125-1.5325-1.5326 0-0.74872 0.54917-1.3929 1.2883-1.5126 0.0831-0.0135 0.16685-0.02073 0.25066-0.02073 0.74556 0 1.3865 0.54598 1.5054 1.2819"/><path d="m208.15 42.961c0.013 0.08061 0.0195 0.16203 0.0195 0.24425 0 0.84052-0.69119 1.5326-1.5326 1.5326-0.84045 0-1.5325-0.69205-1.5325-1.5326 0-0.74952 0.54995-1.3945 1.2899-1.5134 0.0821-0.01353 0.16606-0.02073 0.24986-0.02073 0.74794 0 1.3913 0.55077 1.5062 1.2899"/><path d="m213.14 48.42c0.013 0.08061 0.0195 0.16203 0.0195 0.24425 0 0.84051-0.69124 1.5326-1.5325 1.5326-0.8405 0-1.5326-0.69205-1.5326-1.5326 0-0.74952 0.54997-1.3945 1.2899-1.5134 0.82931-0.1333 1.6219 0.43982 1.7561 1.2692"/><path d="m214.67 39.904c0.013 0.08062 0.0195 0.16204 0.0195 0.24425 0 0.84052-0.69121 1.5326-1.5326 1.5326-0.84046 0-1.5325-0.69205-1.5325-1.5326 0-0.74952 0.54997-1.3945 1.2899-1.5134 0.82935-0.13331 1.622 0.43981 1.7561 1.2692"/></g><g fill-rule="nonzero" stroke-width=".79821"><path d="m201.31 30.74 7.7187-7.7187 7.7905 7.7905c-4.6192 3.3509-10.918 3.3253-15.509-0.06381z" fill="#50ae48"/><path d="m222.95 52.324-2.8018-2.8017 2.8975-2.8975h-5.795l-2.0035-2.0035 1.9477-1.9556h5.9068l-2.9534-2.9534 2.8018-2.8017 7.6708 7.6708z" fill="#45beed"/><path d="m218.33 56.913c-5.1644-4.9313-13.402-4.9313-18.566 0l9.2672 9.2672z" fill="#ffcc13"/></g><g fill="#45beed" fill-rule="nonzero" stroke-width=".79821"><path d="m189.86 42.186c1.3314 1.3338 1.3314 3.5273 0 4.8611l1.9157 1.9157c2.3794-2.3835 2.3794-6.3011 0-8.6845z"/><path d="m193.28 38.802c3.188 3.1944 3.188 8.4435 0 11.638l1.9157 1.9157c4.2393-4.2417 4.2393-11.22 0-15.461z"/><path d="m196.64 35.41c2.4433 2.4393 3.8178 5.7543 3.8178 9.2074 0 3.4531-1.3745 6.768-3.8178 9.2074l1.9157 1.9157c2.9518-2.9454 4.612-6.9492 4.612-11.119 0-4.1699-1.6602-8.1737-4.612-11.119z"/><path d="m187.43 44.621 1.2132 1.2133c0.32172-0.3153 0.50291-0.74712 0.50291-1.1973 0-0.45019-0.18119-0.88202-0.50291-1.1973z"/></g></svg>
